<svg xmlns="http://www.w3.org/2000/svg" viewBox="0 0 557.68 279.61"><defs><style>.cls-1,.cls-3{fill:none;}.cls-1,.cls-3,.cls-4{stroke:#fff;}.cls-1,.cls-4{stroke-linecap:round;stroke-linejoin:round;stroke-width:0.93px;}.cls-2,.cls-4,.cls-5{fill:#fff;}.cls-3{stroke-miterlimit:10;}.cls-5{font-size:47.06px;font-family:Montserrat-SemiBold, Montserrat;font-weight:600;letter-spacing:0.28em;}.cls-6{letter-spacing:0.27em;}.cls-7{letter-spacing:0.27em;}.cls-8{letter-spacing:0.26em;}.cls-9{letter-spacing:0.24em;}</style></defs><g id="Calque_2" data-name="Calque 2"><g id="OBjects"><path class="cls-1" d="M310,274.36a150.16,150.16,0,0,1-31-10h0a164.07,164.07,0,0,1-31-18.06,174.05,174.05,0,0,1-28-26"/><path class="cls-1" d="M341,264.44h0v0h-.07A163.76,163.76,0,0,1,310,246.34a175.18,175.18,0,0,1-27.11-25"/><path class="cls-1" d="M372,246.34h0a174.51,174.51,0,0,1-27.64-25.6"/><path class="cls-1" d="M337,221.44A173.4,173.4,0,0,1,310,246.34,161.64,161.64,0,0,1,279,264.4h0a153.15,153.15,0,0,1-31,10"/><path class="cls-1" d="M248,274.36a151.56,151.56,0,0,0,62,0"/><path class="cls-1" d="M248,274.36a150.25,150.25,0,0,1-31-10,162.11,162.11,0,0,1-31-18.06,173.51,173.51,0,0,1-27.91-25.87"/><path class="cls-1" d="M310,274.36a152.67,152.67,0,0,0,30.92-10H341a162,162,0,0,0,30.95-18.06h0a175.85,175.85,0,0,0,27.39-25.29"/><path class="cls-1" d="M275.84,220.58A174.2,174.2,0,0,1,248,246.34,161.34,161.34,0,0,1,217,264.4"/><path class="cls-1" d="M214.14,220.28A174.72,174.72,0,0,1,186,246.34"/><path class="cls-2" d="M253.27,274.36a5.25,5.25,0,1,0-5.25,5.25A5.25,5.25,0,0,0,253.27,274.36Z"/><path class="cls-2" d="M224.85,264.4a7.84,7.84,0,1,0-7.83,7.84A7.83,7.83,0,0,0,224.85,264.4Z"/><path class="cls-2" d="M147.81,219.87a7.84,7.84,0,0,0,14.34.23"/><path class="cls-2" d="M209.85,220a7.84,7.84,0,0,0,14.36,0"/><path class="cls-2" d="M272,220.25a7.83,7.83,0,0,0,14.19-.22"/><path class="cls-2" d="M334,220.3a7.84,7.84,0,0,0,14.09-.08"/><path class="cls-2" d="M396,220.26a7.83,7.83,0,0,0,14.08,0"/><path class="cls-2" d="M286.84,264.4a7.84,7.84,0,1,0-7.84,7.84A7.83,7.83,0,0,0,286.84,264.4Z"/><path class="cls-2" d="M348.82,264.4a7.84,7.84,0,1,0-7.84,7.84A7.83,7.83,0,0,0,348.82,264.4Z"/><circle class="cls-2" cx="248.02" cy="246.34" r="9.51"/><path class="cls-2" d="M319.49,246.34a9.51,9.51,0,1,0-9.51,9.5A9.51,9.51,0,0,0,319.49,246.34Z"/><path class="cls-2" d="M381.77,246.34a9.51,9.51,0,1,0-9.51,9.5A9.5,9.5,0,0,0,381.77,246.34Z"/><circle class="cls-2" cx="186.02" cy="246.34" r="9.51"/><path class="cls-2" d="M315.23,274.36a5.25,5.25,0,1,0-5.25,5.25A5.25,5.25,0,0,0,315.23,274.36Z"/><rect class="cls-3" x="0.5" y="157.93" width="556.68" height="62.47"/><path class="cls-4" d="M518.87,59.16H38.81A38.31,38.31,0,0,0,.5,97.47v60.46H557.18V97.47A38.31,38.31,0,0,0,518.87,59.16ZM60.57,136.53a22.29,22.29,0,0,1-8.75,6.93q-5.24,2.34-13.31,2.34-9.81,0-16-2.85t-10.73-10q-4.5-7.17-4.51-18.36,0-14.92,7.94-22.93t22.46-8q11.35,0,17.86,4.6t9.66,14.11L48.76,106a13.73,13.73,0,0,0-1.8-4,10.62,10.62,0,0,0-3.82-3.28,10.87,10.87,0,0,0-5-1.15,10.9,10.9,0,0,0-9.68,5.08q-2.55,3.77-2.55,11.84,0,10,3,13.7a10.41,10.41,0,0,0,8.53,3.71c3.56,0,6.24-1,8.06-3a18.45,18.45,0,0,0,4-8.69l16.28,4.92A29.79,29.79,0,0,1,60.57,136.53Zm81.53-.41a58.38,58.38,0,0,1-14.58,7.65,49.24,49.24,0,0,1-15,2q-10.71,0-17.45-3.65a25,25,0,0,1-10.46-10.87,35.76,35.76,0,0,1-3.71-16.57,34.54,34.54,0,0,1,4.06-17.12,26.3,26.3,0,0,1,11.89-11q6.12-2.92,16.45-2.92,10,0,14.91,1.81a19.32,19.32,0,0,1,8.2,5.6,24.72,24.72,0,0,1,4.9,9.61l-17.92,3.2a9.75,9.75,0,0,0-3.75-5.21,11.76,11.76,0,0,0-6.75-1.8,12.17,12.17,0,0,0-9.74,4.25q-3.63,4.24-3.63,13.43,0,9.76,3.67,13.94t10.23,4.19a19.23,19.23,0,0,0,6-.91,31.77,31.77,0,0,0,6.48-3.07V123H113.39V110.49H142.1Zm77.11-15.65a30.18,30.18,0,0,1-1.67,10.07,21.67,21.67,0,0,1-5.2,8.27,20.65,20.65,0,0,1-7.45,5,37.42,37.42,0,0,1-13,2,81.72,81.72,0,0,1-9.58-.61,24.91,24.91,0,0,1-8.67-2.44,21.78,21.78,0,0,1-6.38-5.19,19,19,0,0,1-4-6.92,35.9,35.9,0,0,1-1.72-10.17V84.65h18.54v36.68a10.46,10.46,0,0,0,2.73,7.68,11.73,11.73,0,0,0,15.09,0q2.73-2.73,2.73-7.72V84.65h18.54Zm40.06,24.31H240.65V84.65h18.62Zm74-45.28H314.3v45.28H295.72V99.5h-19V84.65h56.48Zm67.47,45.28H350V84.65h49.79V97.49H368.64V107h28.92v12.27H368.64v11.85h32.08Zm69.55-8.25a22.25,22.25,0,0,1-8.76,6.93q-5.22,2.34-13.31,2.34-9.79,0-16-2.85t-10.73-10q-4.51-7.17-4.51-18.36,0-14.92,7.94-22.93t22.45-8q11.37,0,17.87,4.6t9.65,14.11L458.46,106a14,14,0,0,0-1.81-4,10.68,10.68,0,0,0-3.81-3.28,11.73,11.73,0,0,0-14.73,3.93q-2.53,3.77-2.54,11.84,0,10,3,13.7a10.4,10.4,0,0,0,8.53,3.71q5.33,0,8.06-3a18.45,18.45,0,0,0,4-8.69l16.28,4.92A29.94,29.94,0,0,1,470.27,136.53Zm80.22,8.25H531.83V120.46H511.52v24.32H492.94V84.65h18.58v21h20.31v-21h18.66Z"/><text class="cls-5" transform="translate(41.76 207.73) scale(0.54 1)">SO<tspan class="cls-6" x="95.59" y="0">L</tspan><tspan class="cls-7" x="136.49" y="0">U</tspan><tspan x="186.19" y="0">TIONS INN</tspan><tspan class="cls-8" x="559.74" y="0">O</tspan><tspan class="cls-9" x="611.51" y="0">V</tspan><tspan x="657.25" y="0">ANTES</tspan></text><path class="cls-1" d="M310,5.25a150.77,150.77,0,0,0-31,10h0a164.12,164.12,0,0,0-31,18.07A174.91,174.91,0,0,0,217,62.76a192.1,192.1,0,0,0-31,53.05"/><path class="cls-1" d="M341,15.18h0v0h-.07A163.27,163.27,0,0,0,310,33.28,175.59,175.59,0,0,0,279,62.76"/><path class="cls-1" d="M372,33.28h0A174.46,174.46,0,0,0,341,62.8"/><path class="cls-1" d="M341,62.8a175.12,175.12,0,0,0-31-29.52A161.69,161.69,0,0,0,279,15.21h0a153.78,153.78,0,0,0-31-10"/><path class="cls-1" d="M248,5.25a151.56,151.56,0,0,1,62,0"/><path class="cls-1" d="M248,5.25a150.86,150.86,0,0,0-31,10,162.15,162.15,0,0,0-31,18.07A173.6,173.6,0,0,0,155,62.8"/><path class="cls-1" d="M310,5.25a153.3,153.3,0,0,1,30.92,10H341a162,162,0,0,1,30.95,18.07h0a176,176,0,0,1,31,29.52"/><path class="cls-1" d="M279,62.76a174.55,174.55,0,0,0-31-29.48A161.39,161.39,0,0,0,217,15.21"/><path class="cls-1" d="M217,62.76a174.49,174.49,0,0,0-31-29.48"/><path class="cls-2" d="M253.27,5.25A5.25,5.25,0,1,1,248,0,5.25,5.25,0,0,1,253.27,5.25Z"/><path class="cls-2" d="M224.85,15.21A7.84,7.84,0,1,1,217,7.38,7.84,7.84,0,0,1,224.85,15.21Z"/><path class="cls-2" d="M162.87,62.8A7.84,7.84,0,1,1,155,55,7.84,7.84,0,0,1,162.87,62.8Z"/><path class="cls-2" d="M224.87,62.8A7.84,7.84,0,1,1,217,55,7.84,7.84,0,0,1,224.87,62.8Z"/><path class="cls-2" d="M286.87,62.8A7.84,7.84,0,1,1,279,55,7.84,7.84,0,0,1,286.87,62.8Z"/><circle class="cls-2" cx="341.03" cy="62.8" r="7.84" transform="translate(237.04 393.6) rotate(-82.98)"/><path class="cls-2" d="M410.87,62.8A7.84,7.84,0,1,1,403,55,7.84,7.84,0,0,1,410.87,62.8Z"/><path class="cls-2" d="M286.84,15.21A7.84,7.84,0,1,1,279,7.38,7.84,7.84,0,0,1,286.84,15.21Z"/><path class="cls-2" d="M348.82,15.21A7.84,7.84,0,1,1,341,7.38,7.84,7.84,0,0,1,348.82,15.21Z"/><circle class="cls-2" cx="248.02" cy="33.28" r="9.51"/><path class="cls-2" d="M319.49,33.28A9.51,9.51,0,1,1,310,23.77,9.51,9.51,0,0,1,319.49,33.28Z"/><path class="cls-2" d="M381.77,33.28a9.51,9.51,0,1,1-9.51-9.51A9.51,9.51,0,0,1,381.77,33.28Z"/><circle class="cls-2" cx="186.02" cy="33.28" r="9.51"/><path class="cls-2" d="M315.23,5.25A5.25,5.25,0,1,1,310,0,5.25,5.25,0,0,1,315.23,5.25Z"/></g></g></svg>